<svg width="1810" height="671" viewBox="0 0 1810 671" fill="none" xmlns="http://www.w3.org/2000/svg">
<path d="M179.535 598.192C162.909 599.355 147.501 596.422 133.309 589.395C119.45 582.345 107.211 572.174 96.5912 558.882C86.304 545.567 78.0155 529.774 71.7255 511.501C65.7449 492.873 62.343 472.895 61.5199 451.567C60.7898 431.569 61.7723 409.781 64.4674 386.202C67.4951 362.6 72.3516 338.87 79.037 315.013C85.6991 290.822 94.0936 267.513 104.22 245.085C114.657 222.302 126.941 202.062 141.075 184.367C155.208 166.671 171.237 152.184 189.16 140.907C207.061 129.296 227.15 122.712 249.429 121.154C263.063 120.201 274.732 122.225 284.438 127.227C294.453 131.873 302.601 138.487 308.882 147.07C315.495 155.63 320.361 165.481 323.479 176.624C326.597 187.767 328.397 199.169 328.878 210.831C328.98 221.85 328.062 232.607 326.123 243.102C324.516 253.572 321.675 263.127 317.601 271.766C313.837 280.049 308.803 286.916 302.502 292.369C296.509 297.466 289.357 300.306 281.044 300.887C277.03 300.833 273.113 299.771 269.293 297.699C265.828 295.936 262.127 293.188 258.19 289.453C254.586 285.695 251.02 280.097 247.493 272.658C256.215 268.373 262.756 261.567 267.116 252.24C271.786 242.557 275.102 232.635 277.064 222.473C279.266 210.958 280.378 198.183 280.399 184.147C280.11 170.468 276.586 160.69 269.827 154.813C263.067 148.937 255.697 146.278 247.716 146.836C232.088 147.929 216.198 157.227 200.046 174.73C183.894 192.232 169.313 215.473 156.303 244.451C143.602 273.073 133.388 306.2 125.661 343.83C118.266 381.438 115.179 420.916 116.4 462.265C117.037 480.933 119.305 496.646 123.205 509.405C127.437 522.141 132.67 532.468 138.904 540.385C145.471 548.28 152.54 553.8 160.111 556.946C167.682 560.093 175.126 561.41 182.441 560.898C194.079 560.085 204.878 556.823 214.837 551.115C224.797 545.406 233.677 538.603 241.479 530.707C249.613 522.787 256.393 514.627 261.821 506.228C267.604 498.138 271.949 490.984 274.855 484.766C276.881 480.281 279.189 477.446 281.779 476.263C284.37 475.079 286.72 475.249 288.832 476.772C290.92 477.963 292.413 480.197 293.31 483.476C294.185 486.422 293.775 490.126 292.083 494.589C287.22 506.29 281.028 518.084 273.505 529.971C266.315 541.835 257.88 552.616 248.2 562.315C238.875 572.323 228.425 580.572 216.85 587.062C205.274 593.552 192.836 597.262 179.535 598.192ZM490.668 338.355C481.334 338.674 469.53 339.499 455.254 340.832C440.956 341.832 426.836 342.986 412.893 344.295C403.606 345.279 394.175 346.607 384.602 348.278C376.335 349.525 367.261 351.162 357.378 353.189C347.495 355.217 338.158 357.875 329.366 361.163C328.848 358.526 328.673 356.032 328.843 353.681C328.989 350.998 329.314 348.469 329.816 346.095C330.295 343.388 330.786 340.848 331.288 338.474C332.386 335.055 333.97 331.436 336.042 327.615C338.447 323.772 340.611 321.281 342.537 320.144C344.153 319.363 347.432 318.465 352.373 317.452C357.647 316.414 363.764 315.485 370.723 314.665C377.992 313.488 385.938 312.431 394.56 311.494C403.515 310.534 412.315 309.751 420.961 309.147C438.561 307.582 453.204 306.725 464.888 306.576C476.55 306.095 487.736 305.981 498.446 306.235C503.148 306.574 505.913 307.884 506.741 310.166C507.901 312.424 507.693 316.615 506.116 322.74C504.516 328.532 502.634 332.674 500.469 335.164C498.281 337.322 495.014 338.386 490.668 338.355ZM693.728 238.949C693.326 237.974 694.149 235.411 696.198 231.258C698.223 226.772 700.357 221.444 702.598 215.272C705.149 208.745 707.487 201.564 709.613 193.73C712.047 185.541 713.473 177.254 713.889 168.871C714.638 160.465 714.057 152.152 712.145 143.932C710.234 135.712 706.184 127.976 699.997 120.723C696.392 116.966 691.253 115.153 684.58 115.285C678.215 115.062 670.97 116.571 662.843 119.813C655.025 122.699 646.813 127.115 638.207 133.064C629.91 138.656 622.348 145.199 615.521 152.694C608.671 159.856 602.876 167.779 598.137 176.464C593.73 185.126 591.497 193.803 591.436 202.495C591.26 209.525 591.879 215.997 593.295 221.913C595.044 227.805 597.09 233.176 599.434 238.024C601.778 242.872 604.265 247.376 606.895 251.536C609.525 255.696 611.954 259.369 614.181 262.555C617.167 267.024 621.684 271.888 627.732 277.145C633.78 282.403 640.385 288.457 647.547 295.307C654.686 301.825 661.894 309.341 669.173 317.854C676.451 326.367 682.979 336.102 688.758 347.059C694.536 358.016 698.911 370.407 701.883 384.234C704.855 398.06 705.769 413.534 704.628 430.655C702.691 455.518 698.301 476.375 691.46 493.226C684.642 510.41 676.761 524.327 667.815 534.977C659.202 545.604 650.225 553.416 640.884 558.413C631.567 563.743 623.796 567.293 617.571 569.065C612.653 570.412 606.725 571.661 599.789 572.815C593.208 574.277 586.047 574.611 578.306 573.816C570.921 573.33 563.277 571.525 555.373 568.402C547.492 565.612 540.304 560.768 533.807 553.871C526.242 546.047 520.128 537.452 515.463 528.088C511.224 520.031 507.89 510.574 505.46 499.717C502.721 489.216 502.773 478.018 505.617 466.124C508.068 462.945 510.708 460.087 513.538 457.55C516.368 455.014 519.221 452.809 522.098 450.937C525.284 448.71 528.647 446.637 532.189 444.718C536.418 443.086 540.66 441.62 544.913 440.32C548.524 439.399 552.325 438.799 556.315 438.52C560.615 437.885 564.64 438.105 568.39 439.179C563.798 445.181 560.678 450.746 559.032 455.873C557.888 458.626 557.053 461.023 556.528 463.065C555.639 469.476 555.664 476.993 556.601 485.615C557.894 494.547 560.316 502.898 563.866 510.669C567.773 518.75 572.916 525.407 579.297 530.641C585.701 536.208 593.902 538.809 603.901 538.444C628.222 537.412 647.513 517.016 661.774 477.258C666.59 464.892 668.568 452.557 667.707 440.254C667.18 427.928 664.858 416.228 660.742 405.154C656.959 394.058 652.07 383.874 646.075 374.603C640.39 364.976 634.643 356.857 628.834 350.246C623.025 343.636 616.018 336.607 607.812 329.162C599.915 321.36 591.972 312.894 583.982 303.762C575.992 294.63 568.61 284.621 561.834 273.734C555.39 262.823 550.706 250.787 547.781 237.626C543.818 219.191 544.295 202.116 549.211 186.402C554.436 170.331 561.796 156.117 571.29 143.758C581.117 131.375 591.926 121.096 603.718 112.92C615.842 104.721 626.656 99.2871 636.16 96.6176C688.951 82.2334 724.66 88.7583 743.286 116.193C751.036 126.677 755.674 138.048 757.2 150.305C758.725 162.562 758.696 174.092 757.112 184.895C755.838 195.343 753.794 204.341 750.98 211.889C748.476 219.081 746.748 223.045 745.797 223.779C743.941 225.914 740.934 228.296 736.774 230.926C732.614 233.556 725.782 236.206 716.278 238.875C713.665 239.726 711.028 240.245 708.367 240.431C706.04 240.594 703.534 240.602 700.851 240.455C698.167 240.309 695.793 239.807 693.728 238.949ZM944.319 324.677C945.509 322.589 947.091 321.309 949.063 320.837C951.344 320.009 953.184 320.047 954.584 320.952C955.984 321.856 956.765 323.473 956.928 325.8C957.423 328.105 956.813 331.322 955.097 335.451C949.33 348.552 941.471 362.802 931.521 378.2C921.904 393.575 911.563 408.165 900.499 421.971C889.412 435.444 878.506 446.732 867.782 455.836C857.057 464.939 847.871 469.758 840.223 470.293C829.25 471.06 819.954 469.539 812.337 465.727C804.719 461.916 798.528 457.003 793.763 450.987C789.331 444.948 786.028 438.329 783.854 431.13C781.656 423.598 780.669 416.65 780.893 410.286C780.853 404.942 781.354 395.384 782.396 381.611C783.415 367.506 784.959 351.358 787.028 333.17C789.075 314.649 791.372 294.94 793.921 274.045C796.779 252.794 799.861 232.362 803.167 212.751C797.561 213.811 791.955 214.871 786.348 215.932C780.742 216.992 775.611 217.685 770.956 218.01C760.315 218.754 750.258 218.288 740.785 216.612C730.956 214.626 723.632 212.632 718.814 210.63C716.061 209.486 714.769 207.738 714.939 205.387C715.085 202.704 715.909 200.14 717.408 197.696C718.885 194.92 720.895 192.607 723.439 190.759C725.627 188.601 727.719 187.452 729.714 187.313C736.078 187.536 742.942 187.724 750.304 187.878C757.642 187.699 765.623 187.141 774.245 186.203C780.54 185.429 786.49 184.512 792.097 183.452C798.036 182.368 803.797 181.13 809.38 179.737C812.586 163.474 815.778 149.383 818.954 137.466C822.44 125.193 825.683 116.613 828.682 111.725C829.564 109.992 831.632 108.511 834.888 107.281C838.452 105.695 842.218 104.596 846.185 103.985C850.129 103.041 853.953 102.773 857.657 103.183C861.338 103.259 864.08 104.237 865.882 106.116C867.73 108.66 868.872 115.43 869.307 126.427C869.742 137.423 868.889 151.517 866.75 168.708C880.716 167.731 893.077 167.702 903.834 168.621C914.901 169.184 924.327 170.195 932.115 171.656C939.879 172.783 946.159 174.182 950.954 175.852C955.725 177.189 959.298 178.108 961.672 178.611C964.046 179.113 965.326 180.694 965.512 183.354C966.031 185.991 965.73 188.853 964.609 191.938C963.797 194.668 962.131 197.124 959.611 199.305C957.09 201.486 954.144 202.36 950.772 201.928C947.424 201.828 943.553 201.43 939.161 200.735C935.101 200.016 930.055 199.534 924.023 199.287C918.323 199.018 911.46 198.829 903.433 198.722C895.406 198.615 886.072 198.934 875.432 199.678C873.436 199.817 871.12 200.146 868.484 200.665C866.156 200.828 863.662 201.002 861.002 201.188C860.044 206.602 859.086 212.015 858.128 217.428C857.479 222.486 856.355 227.911 854.755 233.703C851.362 247.306 847.386 262.12 842.826 278.144C838.791 292.126 833.899 308.173 828.148 326.285C822.397 344.397 815.897 363.73 808.647 384.286C807.651 398.724 808.585 409.686 811.447 417.171C814.619 424.3 818.15 429.4 822.04 432.469C826.619 435.825 832.079 437.448 838.42 437.339C843.454 437.655 849.323 435.574 856.027 431.095C863.04 426.261 870.127 420.085 877.287 412.567C884.446 405.049 891.559 396.867 898.626 388.019C906.025 379.148 912.771 370.489 918.863 362.044C924.956 353.598 930.275 346.042 934.821 339.375C939.344 332.376 942.51 327.477 944.319 324.677ZM985.623 456.617C972.987 457.501 962.54 456.226 954.28 452.794C946.021 449.362 939.366 444.982 934.315 439.655C929.574 433.972 925.973 427.875 923.513 421.364C921.362 414.497 920.089 408.237 919.693 402.585C918.996 392.609 919.095 382.076 919.99 370.987C920.862 359.565 922.136 349.117 923.813 339.644C925.466 329.838 926.892 321.552 928.089 314.785C929.619 307.995 930.659 303.746 931.208 302.037C933.526 292.184 936.769 283.604 940.936 276.295C945.412 268.631 951.88 263.166 960.339 259.902C963.618 259.004 967.063 258.095 970.674 257.174C973.644 256.632 976.625 256.257 979.618 256.048C982.943 255.815 985.97 256.105 988.7 256.916C981.327 280.488 975.514 300.108 971.264 315.776C967.345 331.421 964.393 344.158 962.407 353.987C960.182 365.169 958.969 374.109 958.769 380.806C958.153 395.885 960.274 407.098 965.131 414.444C969.989 421.79 979.068 424.997 992.369 424.067C1001.01 423.463 1009.11 419.723 1016.65 412.847C1024.16 405.638 1030.88 396.647 1036.81 385.874C1035.44 380.623 1034.56 375.172 1034.17 369.519C1033.42 358.878 1033.53 348.512 1034.5 338.42C1035.77 327.972 1037.27 318.344 1038.99 309.536C1041.03 300.372 1043.13 292.205 1045.3 285.036C1047.8 277.844 1049.91 272.183 1051.63 268.053C1054.73 259.817 1057.72 254.763 1060.59 252.891C1063.45 250.687 1068.19 249.186 1074.82 248.388C1077.45 247.87 1079.61 247.719 1081.3 247.935C1083.29 247.795 1084.97 247.845 1086.32 248.085C1090.38 248.803 1092.52 250.659 1092.73 253.652C1093.1 258.972 1093.32 266.976 1093.4 277.663C1093.48 288.35 1092.25 299.463 1089.72 311.001C1088.04 320.475 1086.27 328.618 1084.41 335.431C1082.86 341.888 1081.25 347.515 1079.58 352.309C1077.88 356.772 1076.14 360.569 1074.36 363.701C1072.55 366.501 1070.89 369.123 1069.39 371.566C1070.76 381.496 1072.15 389.418 1073.56 395.334C1074.98 401.249 1076.47 405.823 1078.03 409.055C1079.9 411.932 1081.88 413.965 1083.97 415.156C1086.37 415.991 1088.9 416.315 1091.56 416.129C1096.21 415.803 1101.55 413.258 1107.56 408.494C1113.56 403.397 1119.64 397.291 1125.83 390.175C1132.32 382.704 1138.62 374.745 1144.71 366.3C1151.11 357.499 1156.88 349.242 1162.02 341.532C1167.17 333.821 1171.55 327.166 1175.16 321.567C1178.76 315.635 1181.01 311.969 1181.91 310.569C1184.03 307.413 1186.07 305.433 1188.01 304.629C1190.3 303.801 1192.15 304.006 1193.57 305.243C1194.97 306.147 1195.76 307.93 1195.95 310.59C1196.44 312.894 1195.97 315.601 1194.51 318.71C1188.75 331.811 1181.37 345.859 1172.4 360.855C1163.73 375.495 1154.16 389.196 1143.7 401.958C1133.56 414.696 1123.12 425.45 1112.37 434.221C1101.62 442.992 1091.26 447.727 1081.28 448.424C1072.31 449.052 1064.95 446.559 1059.21 440.946C1053.78 434.977 1048.83 426.301 1044.36 414.919C1037.55 427.424 1029.22 437.363 1019.38 444.734C1009.51 451.772 998.259 455.734 985.623 456.617ZM1314.58 329.861C1313.64 340.286 1312.66 350.211 1311.65 359.638C1310.97 369.042 1310.67 376.582 1310.73 382.258C1310.98 390.594 1312.89 396.475 1316.47 399.9C1320.05 403.325 1323.84 404.898 1327.83 404.619C1332.48 404.294 1337.97 401.571 1344.3 396.451C1350.96 391.307 1357.87 384.976 1365.03 377.459C1372.19 369.941 1379.3 361.758 1386.37 352.91C1393.43 344.062 1399.87 335.76 1405.67 328.003C1411.79 319.89 1416.81 312.855 1420.74 306.9C1425 300.922 1427.9 297.043 1429.45 295.264C1431.3 293.13 1433.22 291.826 1435.19 291.354C1437.49 290.859 1439.35 291.064 1440.75 291.968C1442.15 292.873 1442.94 294.655 1443.13 297.315C1443.31 299.976 1442.21 303.394 1439.83 307.57C1436.28 314.167 1431.65 322.009 1425.94 331.097C1420.2 339.851 1413.82 348.985 1406.8 358.498C1399.78 368.011 1392.25 377.392 1384.21 386.643C1376.5 395.869 1368.56 404.11 1360.38 411.365C1352.53 418.597 1344.76 424.487 1337.06 429.035C1329.71 433.893 1322.88 436.543 1316.56 436.984C1311.9 437.31 1307.32 436.294 1302.81 433.936C1298.64 431.555 1294.74 428.319 1291.11 424.229C1287.48 420.139 1284.48 415.503 1282.12 410.322C1280.08 405.118 1279.04 399.844 1279 394.501C1279.17 392.15 1279.39 388.125 1279.66 382.425C1266.79 399.03 1253.53 412.488 1239.88 422.799C1226.55 432.753 1213.39 438.184 1200.42 439.091C1195.77 439.416 1190.7 438.601 1185.22 436.646C1179.73 434.69 1174.64 431.203 1169.95 426.185C1165.59 421.144 1161.77 414.393 1158.51 405.934C1155.24 397.474 1153.51 387.07 1153.32 374.72C1152.97 355.364 1155.51 336.808 1160.95 319.052C1166.4 301.295 1173.66 285.751 1182.75 272.417C1192.16 258.728 1202.92 247.784 1215.04 239.585C1227.48 231.03 1240.18 226.299 1253.15 225.393C1258.8 224.997 1264.06 226.133 1268.92 228.8C1273.76 231.135 1278.01 234.514 1281.66 238.937C1285.29 243.027 1288.28 247.662 1290.65 252.843C1293.35 258.001 1295.36 262.872 1296.69 267.458C1298.34 257.652 1299.84 248.024 1301.18 238.574C1302.53 229.124 1303.9 220.172 1305.32 211.72C1307.78 199.184 1310.35 185.639 1313 171.085C1315.47 158.549 1318.3 144.149 1321.51 127.886C1324.72 111.623 1328.36 94.4934 1332.45 76.4977C1335.59 73.605 1338.61 71.389 1341.51 69.8496C1344.41 68.3103 1347.17 67.1151 1349.78 66.264C1352.7 65.0572 1355.5 64.3608 1358.16 64.1747C1361.48 63.9422 1364.51 64.2317 1367.24 65.0433C1369.94 65.5223 1372.26 67.5325 1374.18 71.074C1376.4 74.2597 1378.09 79.3208 1379.25 86.2572C1380.4 93.1937 1381.06 102.671 1381.24 114.688C1381.59 129.365 1380.05 145.512 1376.6 163.129C1373.49 180.722 1368.93 199.085 1362.91 218.218C1356.88 237.018 1349.69 256.066 1341.35 275.362C1333.31 294.301 1324.39 312.468 1314.58 329.861ZM1285.61 338.403C1286.5 331.992 1287.22 325.593 1287.77 319.206C1288.66 312.795 1289.71 306.206 1290.9 299.439C1290.26 299.818 1289.62 300.197 1288.98 300.576C1288.67 300.932 1288.19 301.299 1287.55 301.678C1284.01 303.597 1281.52 303.771 1280.07 302.202C1278.6 300.299 1277.73 297.353 1277.45 293.363C1277.31 291.368 1276.9 287.888 1276.21 282.923C1275.51 277.626 1274.14 272.376 1272.11 267.172C1270.38 261.612 1267.88 256.941 1264.61 253.16C1261.32 249.047 1257.01 247.176 1251.69 247.548C1244.04 248.083 1236.5 252.62 1229.08 261.158C1221.64 269.364 1214.82 279.364 1208.62 291.158C1202.41 302.62 1197.42 314.831 1193.64 327.793C1189.87 340.754 1188 352.246 1188.03 362.268C1188.49 378.275 1191.28 389.608 1196.43 396.265C1201.57 402.923 1208.13 405.972 1216.11 405.414C1222.1 404.996 1228.42 402.215 1235.08 397.071C1242.07 391.904 1248.65 385.763 1254.84 378.648C1261.36 371.509 1267.2 364.25 1272.36 356.872C1277.86 349.471 1282.28 343.314 1285.61 338.403ZM1498.72 117.5C1497.98 121.227 1496.24 125.024 1493.5 128.891C1491.07 132.402 1488.11 135.45 1484.62 138.033C1481.43 140.261 1478.03 141.835 1474.42 142.756C1470.81 143.677 1467.77 143.221 1465.3 141.389C1457.95 136.557 1453.89 131.159 1453.14 125.197C1452.37 118.903 1453.46 112.979 1456.41 107.426C1459.34 101.541 1463.17 96.5947 1467.9 92.5882C1472.61 88.2492 1476.77 85.6193 1480.38 84.6984C1484 83.7776 1487.05 84.3997 1489.54 86.5645C1492.34 88.3736 1494.53 91.0606 1496.12 94.6253C1497.68 97.8575 1498.61 101.635 1498.91 105.958C1499.55 110.257 1499.48 114.105 1498.72 117.5ZM1437.31 228.553C1438.84 226.442 1441.88 224.558 1446.44 222.903C1451 221.247 1455.76 219.912 1460.7 218.899C1465.62 217.552 1470.07 216.74 1474.06 216.461C1478.36 215.826 1480.85 215.651 1481.54 215.937C1481.9 216.247 1481.31 219.796 1479.78 226.586C1478.25 233.376 1476.3 241.365 1473.94 250.552C1471.57 259.739 1469.07 269.271 1466.41 279.147C1463.74 288.69 1461.78 296.512 1460.54 302.614C1459.29 308.715 1457.77 315.672 1455.98 323.482C1454.17 330.961 1452.52 338.427 1451.03 345.882C1449.86 352.981 1449.16 359.713 1448.94 366.078C1448.71 372.442 1449.55 377.229 1451.44 380.438C1453.39 384.312 1455.41 387.01 1457.52 388.533C1459.61 389.724 1461.82 390.238 1464.15 390.075C1470.8 389.61 1478.85 385.371 1488.32 377.358C1498.12 369.322 1507.82 359.955 1517.43 349.259C1527.35 338.207 1536.44 327.212 1544.7 316.276C1552.93 305.008 1558.99 296.064 1562.87 289.443C1565.3 285.932 1567.8 283.585 1570.39 282.401C1573.32 281.194 1575.66 281.198 1577.41 282.412C1579.5 283.602 1580.65 285.694 1580.86 288.687C1581.4 291.656 1580.65 295.217 1578.6 299.37C1573.93 309.053 1566.89 320.739 1557.49 334.428C1548.07 347.785 1537.96 360.855 1527.15 373.64C1516.33 386.092 1505.56 396.87 1494.83 405.973C1484.44 415.054 1475.76 420.004 1468.8 420.825C1463.17 421.553 1457.45 420.951 1451.64 419.018C1446.18 417.395 1440.99 414.918 1436.08 411.585C1431.48 407.897 1427.51 403.664 1424.16 398.886C1420.8 393.774 1418.75 388.404 1418.03 382.774C1416.45 374.531 1415.66 363.225 1415.65 348.857C1415.63 334.157 1416.42 319.232 1418.04 304.082C1419.63 288.6 1421.94 273.903 1424.98 259.99C1428.35 246.055 1432.46 235.576 1437.31 228.553ZM1691.78 319.524C1689.34 332.393 1685.67 344.511 1680.79 355.879C1675.9 367.248 1669.75 377.201 1662.33 385.74C1655.24 394.255 1646.86 401.023 1637.18 406.044C1627.86 411.373 1617.39 414.445 1605.75 415.259C1592.12 416.212 1581.1 413.975 1572.7 408.548C1564.66 403.43 1558.34 396.687 1553.74 388.321C1549.48 379.931 1546.66 370.605 1545.27 360.344C1543.55 350.105 1542.38 340.497 1541.75 331.519C1541.31 325.201 1541.65 318.16 1542.78 310.396C1543.58 302.655 1545.02 294.701 1547.13 286.534C1549.23 278.368 1552 270.155 1555.43 261.895C1559.19 253.613 1563.67 245.948 1568.86 238.903C1570.46 233.11 1573.1 227.913 1576.79 223.311C1580.81 218.686 1585.39 214.858 1590.52 211.825C1595.96 208.437 1601.8 205.857 1608.02 204.086C1614.23 201.981 1620.32 200.72 1626.3 200.301C1627.3 200.231 1628.14 200.34 1628.83 200.626C1629.85 200.888 1630.87 201.151 1631.9 201.414C1636.24 201.444 1641.68 202.735 1648.21 205.286C1655.06 207.813 1661.7 211.861 1668.1 217.427C1674.84 222.971 1680.69 230.247 1685.67 239.255C1690.62 247.931 1693.55 258.753 1694.45 271.721C1694.64 274.382 1694.7 277.718 1694.65 281.732C1694.57 285.413 1694.46 288.595 1694.32 291.279C1701.75 287.751 1709.48 283.535 1717.49 278.631C1725.5 273.727 1733.17 268.68 1740.49 263.49C1748.12 257.944 1755.09 252.445 1761.39 246.992C1767.69 241.539 1772.7 236.678 1776.41 232.409C1779.53 229.183 1782.24 227.323 1784.54 226.828C1786.84 226.333 1788.55 226.881 1789.67 228.474C1790.78 230.067 1791.11 232.383 1790.65 235.422C1790.2 238.461 1788.6 241.915 1785.87 245.782C1784.34 247.893 1780.3 252.185 1773.73 258.659C1767.5 265.11 1759.98 272.152 1751.15 279.786C1742.33 287.42 1732.67 294.946 1722.16 302.363C1711.65 309.781 1701.52 315.501 1691.78 319.524ZM1602.18 249.604C1601.4 252.666 1601.12 255.86 1601.35 259.185C1601.72 264.506 1602.45 270.135 1603.53 276.074C1604.59 281.68 1606.62 286.718 1609.6 291.188C1612.59 295.657 1617.02 299.356 1622.91 302.286C1629.1 304.861 1637.36 305.787 1647.66 305.066C1649.33 304.95 1650.99 304.834 1652.65 304.718C1654.29 304.269 1655.93 303.82 1657.57 303.371C1658.27 298.979 1658.83 295.097 1659.26 291.725C1660 287.997 1660.28 284.804 1660.1 282.143C1660.32 275.779 1659.87 269.295 1658.74 262.691C1657.61 256.087 1655.86 250.195 1653.49 245.014C1651.43 239.477 1648.79 235.151 1645.56 232.035C1642.65 228.563 1639.2 226.967 1635.21 227.246C1628.89 227.688 1622.86 229.947 1617.13 234.023C1611.71 237.744 1606.73 242.937 1602.18 249.604ZM1576.4 339.622C1576.82 345.607 1577.57 351.569 1578.65 357.508C1579.71 363.114 1581.41 368.175 1583.73 372.691C1586.02 376.875 1588.94 380.346 1592.47 383.106C1595.98 385.534 1600.4 386.562 1605.72 386.19C1611.71 385.771 1617.1 384.058 1621.9 381.049C1626.68 377.707 1630.91 373.735 1634.6 369.134C1638.27 364.199 1641.4 358.801 1643.99 352.939C1646.9 346.721 1649.3 340.372 1651.18 333.891C1648.88 334.386 1646.57 334.882 1644.27 335.377C1642.28 335.516 1639.95 335.679 1637.29 335.865C1624.65 336.749 1613.42 333.858 1603.6 327.194C1594.09 320.174 1586.43 311.019 1580.63 299.73C1579.12 306.852 1577.94 313.785 1577.07 320.528C1576.21 327.272 1575.98 333.636 1576.4 339.622Z" fill="#1D2424"/>
</svg>
