<svg width="2200" height="1200" viewBox="0 0 2200 1200" fill="none" xmlns="http://www.w3.org/2000/svg">
<path d="M363.5 807C346.833 807 331.667 803 318 795C304.667 787 293.167 776 283.5 762C274.167 748 267 731.667 262 713C257.333 694 255.333 673.833 256 652.5C256.667 632.5 259.167 610.833 263.5 587.5C268.167 564.167 274.667 540.833 283 517.5C291.333 493.833 301.333 471.167 313 449.5C325 427.5 338.667 408.167 354 391.5C369.333 374.833 386.333 361.5 405 351.5C423.667 341.167 444.167 336 466.5 336C480.167 336 491.667 338.833 501 344.5C510.667 349.833 518.333 357 524 366C530 375 534.167 385.167 536.5 396.5C538.833 407.833 539.833 419.333 539.5 431C538.833 442 537.167 452.667 534.5 463C532.167 473.333 528.667 482.667 524 491C519.667 499 514.167 505.5 507.5 510.5C501.167 515.167 493.833 517.5 485.5 517.5C481.5 517.167 477.667 515.833 474 513.5C470.667 511.5 467.167 508.5 463.5 504.5C460.167 500.5 457 494.667 454 487C463 483.333 470 477 475 468C480.333 458.667 484.333 449 487 439C490 427.667 492 415 493 401C493.667 387.333 490.833 377.333 484.5 371C478.167 364.667 471 361.5 463 361.5C447.333 361.5 430.833 369.667 413.5 386C396.167 402.333 380 424.5 365 452.5C350.333 480.167 337.833 512.5 327.5 549.5C317.5 586.5 311.667 625.667 310 667C309.333 685.667 310.5 701.5 313.5 714.5C316.833 727.5 321.333 738.167 327 746.5C333 754.833 339.667 760.833 347 764.5C354.333 768.167 361.667 770 369 770C380.667 770 391.667 767.5 402 762.5C412.333 757.5 421.667 751.333 430 744C438.667 736.667 446 729 452 721C458.333 713.333 463.167 706.5 466.5 700.5C468.833 696.167 471.333 693.5 474 692.5C476.667 691.5 479 691.833 481 693.5C483 694.833 484.333 697.167 485 700.5C485.667 703.5 485 707.167 483 711.5C477.333 722.833 470.333 734.167 462 745.5C454 756.833 444.833 767 434.5 776C424.5 785.333 413.5 792.833 401.5 798.5C389.5 804.167 376.833 807 363.5 807ZM692 569.5C682.667 569.167 670.833 569.167 656.5 569.5C642.167 569.5 628 569.667 614 570C604.667 570.333 595.167 571 585.5 572C577.167 572.667 568 573.667 558 575C548 576.333 538.5 578.333 529.5 581C529.167 578.333 529.167 575.833 529.5 573.5C529.833 570.833 530.333 568.333 531 566C531.667 563.333 532.333 560.833 533 558.5C534.333 555.167 536.167 551.667 538.5 548C541.167 544.333 543.5 542 545.5 541C547.167 540.333 550.5 539.667 555.5 539C560.833 538.333 567 537.833 574 537.5C581.333 536.833 589.333 536.333 598 536C607 535.667 615.833 535.5 624.5 535.5C642.167 535.167 656.833 535.333 668.5 536C680.167 536.333 691.333 537 702 538C706.667 538.667 709.333 540.167 710 542.5C711 544.833 710.5 549 708.5 555C706.5 560.667 704.333 564.667 702 567C699.667 569 696.333 569.833 692 569.5ZM901.5 484.5C901.167 483.5 902.167 481 904.5 477C906.833 472.667 909.333 467.5 912 461.5C915 455.167 917.833 448.167 920.5 440.5C923.5 432.5 925.5 424.333 926.5 416C927.833 407.667 927.833 399.333 926.5 391C925.167 382.667 921.667 374.667 916 367C912.667 363 907.667 360.833 901 360.5C894.667 359.833 887.333 360.833 879 363.5C871 365.833 862.5 369.667 853.5 375C844.833 380 836.833 386 829.5 393C822.167 399.667 815.833 407.167 810.5 415.5C805.5 423.833 802.667 432.333 802 441C801.333 448 801.5 454.5 802.5 460.5C803.833 466.5 805.5 472 807.5 477C809.5 482 811.667 486.667 814 491C816.333 495.333 818.5 499.167 820.5 502.5C823.167 507.167 827.333 512.333 833 518C838.667 523.667 844.833 530.167 851.5 537.5C858.167 544.5 864.833 552.5 871.5 561.5C878.167 570.5 884 580.667 889 592C894 603.333 897.5 616 899.5 630C901.5 644 901.333 659.5 899 676.5C895.333 701.167 889.5 721.667 881.5 738C873.5 754.667 864.667 768 855 778C845.667 788 836.167 795.167 826.5 799.5C816.833 804.167 808.833 807.167 802.5 808.5C797.5 809.5 791.5 810.333 784.5 811C777.833 812 770.667 811.833 763 810.5C755.667 809.5 748.167 807.167 740.5 803.5C732.833 800.167 726 794.833 720 787.5C713 779.167 707.5 770.167 703.5 760.5C699.833 752.167 697.167 742.5 695.5 731.5C693.5 720.833 694.333 709.667 698 698C700.667 695 703.5 692.333 706.5 690C709.5 687.667 712.5 685.667 715.5 684C718.833 682 722.333 680.167 726 678.5C730.333 677.167 734.667 676 739 675C742.667 674.333 746.5 674 750.5 674C754.833 673.667 758.833 674.167 762.5 675.5C757.5 681.167 754 686.5 752 691.5C750.667 694.167 749.667 696.5 749 698.5C747.667 704.833 747.167 712.333 747.5 721C748.167 730 750 738.5 753 746.5C756.333 754.833 761 761.833 767 767.5C773 773.5 781 776.667 791 777C815.333 777.667 836 758.667 853 720C858.667 708 861.5 695.833 861.5 683.5C861.833 671.167 860.333 659.333 857 648C854 636.667 849.833 626.167 844.5 616.5C839.5 606.5 834.333 598 829 591C823.667 584 817.167 576.5 809.5 568.5C802.167 560.167 794.833 551.167 787.5 541.5C780.167 531.833 773.5 521.333 767.5 510C761.833 498.667 758 486.333 756 473C753.333 454.333 755 437.333 761 422C767.333 406.333 775.667 392.667 786 381C796.667 369.333 808.167 359.833 820.5 352.5C833.167 345.167 844.333 340.5 854 338.5C907.667 327.833 942.833 336.833 959.5 365.5C966.5 376.5 970.333 388.167 971 400.5C971.667 412.833 970.833 424.333 968.5 435C966.5 445.333 963.833 454.167 960.5 461.5C957.5 468.5 955.5 472.333 954.5 473C952.5 475 949.333 477.167 945 479.5C940.667 481.833 933.667 484 924 486C921.333 486.667 918.667 487 916 487C913.667 487 911.167 486.833 908.5 486.5C905.833 486.167 903.5 485.5 901.5 484.5ZM1145.5 587.5C1146.83 585.5 1148.5 584.333 1150.5 584C1152.83 583.333 1154.67 583.5 1156 584.5C1157.33 585.5 1158 587.167 1158 589.5C1158.33 591.833 1157.5 595 1155.5 599C1148.83 611.667 1140 625.333 1129 640C1118.33 654.667 1107 668.5 1095 681.5C1083 694.167 1071.33 704.667 1060 713C1048.67 721.333 1039.17 725.5 1031.5 725.5C1020.5 725.5 1011.33 723.333 1004 719C996.667 714.667 990.833 709.333 986.5 703C982.5 696.667 979.667 689.833 978 682.5C976.333 674.833 975.833 667.833 976.5 661.5C976.833 656.167 978 646.667 980 633C982 619 984.667 603 988 585C991.333 566.667 995 547.167 999 526.5C1003.33 505.5 1007.83 485.333 1012.5 466C1006.83 466.667 1001.17 467.333 995.5 468C989.833 468.667 984.667 469 980 469C969.333 469 959.333 467.833 950 465.5C940.333 462.833 933.167 460.333 928.5 458C925.833 456.667 924.667 454.833 925 452.5C925.333 449.833 926.333 447.333 928 445C929.667 442.333 931.833 440.167 934.5 438.5C936.833 436.5 939 435.5 941 435.5C947.333 436.167 954.167 436.833 961.5 437.5C968.833 437.833 976.833 437.833 985.5 437.5C991.833 437.167 997.833 436.667 1003.5 436C1009.5 435.333 1015.33 434.5 1021 433.5C1025.33 417.5 1029.5 403.667 1033.5 392C1037.83 380 1041.67 371.667 1045 367C1046 365.333 1048.17 364 1051.5 363C1055.17 361.667 1059 360.833 1063 360.5C1067 359.833 1070.83 359.833 1074.5 360.5C1078.17 360.833 1080.83 362 1082.5 364C1084.17 366.667 1084.83 373.5 1084.5 384.5C1084.17 395.5 1082.33 409.5 1079 426.5C1093 426.5 1105.33 427.333 1116 429C1127 430.333 1136.33 432 1144 434C1151.67 435.667 1157.83 437.5 1162.5 439.5C1167.17 441.167 1170.67 442.333 1173 443C1175.33 443.667 1176.5 445.333 1176.5 448C1176.83 450.667 1176.33 453.5 1175 456.5C1174 459.167 1172.17 461.5 1169.5 463.5C1166.83 465.5 1163.83 466.167 1160.5 465.5C1157.17 465.167 1153.33 464.5 1149 463.5C1145 462.5 1140 461.667 1134 461C1128.33 460.333 1121.5 459.667 1113.5 459C1105.5 458.333 1096.17 458 1085.5 458C1083.5 458 1081.17 458.167 1078.5 458.5C1076.17 458.5 1073.67 458.5 1071 458.5C1069.67 463.833 1068.33 469.167 1067 474.5C1066 479.5 1064.5 484.833 1062.5 490.5C1058.17 503.833 1053.17 518.333 1047.5 534C1042.5 547.667 1036.5 563.333 1029.5 581C1022.5 598.667 1014.67 617.5 1006 637.5C1004 651.833 1004.17 662.833 1006.5 670.5C1009.17 677.833 1012.33 683.167 1016 686.5C1020.33 690.167 1025.67 692.167 1032 692.5C1037 693.167 1043 691.5 1050 687.5C1057.33 683.167 1064.83 677.5 1072.5 670.5C1080.17 663.5 1087.83 655.833 1095.5 647.5C1103.5 639.167 1110.83 631 1117.5 623C1124.17 615 1130 607.833 1135 601.5C1140 594.833 1143.5 590.167 1145.5 587.5ZM1177.5 722C1164.83 722 1154.5 720 1146.5 716C1138.5 712 1132.17 707.167 1127.5 701.5C1123.17 695.5 1120 689.167 1118 682.5C1116.33 675.5 1115.5 669.167 1115.5 663.5C1115.5 653.5 1116.33 643 1118 632C1119.67 620.667 1121.67 610.333 1124 601C1126.33 591.333 1128.33 583.167 1130 576.5C1132 569.833 1133.33 565.667 1134 564C1137 554.333 1140.83 546 1145.5 539C1150.5 531.667 1157.33 526.667 1166 524C1169.33 523.333 1172.83 522.667 1176.5 522C1179.5 521.667 1182.5 521.5 1185.5 521.5C1188.83 521.5 1191.83 522 1194.5 523C1185.5 546 1178.33 565.167 1173 580.5C1168 595.833 1164.17 608.333 1161.5 618C1158.5 629 1156.67 637.833 1156 644.5C1154.33 659.5 1155.67 670.833 1160 678.5C1164.33 686.167 1173.17 690 1186.5 690C1195.17 690 1203.5 686.833 1211.5 680.5C1219.5 673.833 1226.83 665.333 1233.5 655C1232.5 649.667 1232 644.167 1232 638.5C1232 627.833 1232.83 617.5 1234.5 607.5C1236.5 597.167 1238.67 587.667 1241 579C1243.67 570 1246.33 562 1249 555C1252 548 1254.5 542.5 1256.5 538.5C1260.17 530.5 1263.5 525.667 1266.5 524C1269.5 522 1274.33 520.833 1281 520.5C1283.67 520.167 1285.83 520.167 1287.5 520.5C1289.5 520.5 1291.17 520.667 1292.5 521C1296.5 522 1298.5 524 1298.5 527C1298.5 532.333 1298.17 540.333 1297.5 551C1296.83 561.667 1294.83 572.667 1291.5 584C1289.17 593.333 1286.83 601.333 1284.5 608C1282.5 614.333 1280.5 619.833 1278.5 624.5C1276.5 628.833 1274.5 632.5 1272.5 635.5C1270.5 638.167 1268.67 640.667 1267 643C1267.67 653 1268.5 661 1269.5 667C1270.5 673 1271.67 677.667 1273 681C1274.67 684 1276.5 686.167 1278.5 687.5C1280.83 688.5 1283.33 689 1286 689C1290.67 689 1296.17 686.833 1302.5 682.5C1308.83 677.833 1315.33 672.167 1322 665.5C1329 658.5 1335.83 651 1342.5 643C1349.5 634.667 1355.83 626.833 1361.5 619.5C1367.17 612.167 1372 605.833 1376 600.5C1380 594.833 1382.5 591.333 1383.5 590C1385.83 587 1388 585.167 1390 584.5C1392.33 583.833 1394.17 584.167 1395.5 585.5C1396.83 586.5 1397.5 588.333 1397.5 591C1397.83 593.333 1397.17 596 1395.5 599C1388.83 611.667 1380.5 625.167 1370.5 639.5C1360.83 653.5 1350.33 666.5 1339 678.5C1328 690.5 1316.83 700.5 1305.5 708.5C1294.17 716.5 1283.5 720.5 1273.5 720.5C1264.5 720.5 1257.33 717.5 1252 711.5C1247 705.167 1242.67 696.167 1239 684.5C1231.33 696.5 1222.33 705.833 1212 712.5C1201.67 718.833 1190.17 722 1177.5 722ZM1514.5 618.5C1512.83 628.833 1511.17 638.667 1509.5 648C1508.17 657.333 1507.33 664.833 1507 670.5C1506.67 678.833 1508.17 684.833 1511.5 688.5C1514.83 692.167 1518.5 694 1522.5 694C1527.17 694 1532.83 691.667 1539.5 687C1546.5 682.333 1553.83 676.5 1561.5 669.5C1569.17 662.5 1576.83 654.833 1584.5 646.5C1592.17 638.167 1599.17 630.333 1605.5 623C1612.17 615.333 1617.67 608.667 1622 603C1626.67 597.333 1629.83 593.667 1631.5 592C1633.5 590 1635.5 588.833 1637.5 588.5C1639.83 588.167 1641.67 588.5 1643 589.5C1644.33 590.5 1645 592.333 1645 595C1645 597.667 1643.67 601 1641 605C1637 611.333 1631.83 618.833 1625.5 627.5C1619.17 635.833 1612.17 644.5 1604.5 653.5C1596.83 662.5 1588.67 671.333 1580 680C1571.67 688.667 1563.17 696.333 1554.5 703C1546.17 709.667 1538 715 1530 719C1522.33 723.333 1515.33 725.5 1509 725.5C1504.33 725.5 1499.83 724.167 1495.5 721.5C1491.5 718.833 1487.83 715.333 1484.5 711C1481.17 706.667 1478.5 701.833 1476.5 696.5C1474.83 691.167 1474.17 685.833 1474.5 680.5C1474.83 678.167 1475.33 674.167 1476 668.5C1462 684.167 1447.83 696.667 1433.5 706C1419.5 715 1406 719.5 1393 719.5C1388.33 719.5 1383.33 718.333 1378 716C1372.67 713.667 1367.83 709.833 1363.5 704.5C1359.5 699.167 1356.17 692.167 1353.5 683.5C1350.83 674.833 1349.83 664.333 1350.5 652C1351.5 632.667 1355.33 614.333 1362 597C1368.67 579.667 1377 564.667 1387 552C1397.33 539 1408.83 528.833 1421.5 521.5C1434.5 513.833 1447.5 510 1460.5 510C1466.17 510 1471.33 511.5 1476 514.5C1480.67 517.167 1484.67 520.833 1488 525.5C1491.33 529.833 1494 534.667 1496 540C1498.33 545.333 1500 550.333 1501 555C1503.33 545.333 1505.5 535.833 1507.5 526.5C1509.5 517.167 1511.5 508.333 1513.5 500C1516.83 487.667 1520.33 474.333 1524 460C1527.33 447.667 1531.17 433.5 1535.5 417.5C1539.83 401.5 1544.67 384.667 1550 367C1553.33 364.333 1556.5 362.333 1559.5 361C1562.5 359.667 1565.33 358.667 1568 358C1571 357 1573.83 356.5 1576.5 356.5C1579.83 356.5 1582.83 357 1585.5 358C1588.17 358.667 1590.33 360.833 1592 364.5C1594 367.833 1595.33 373 1596 380C1596.67 387 1596.67 396.5 1596 408.5C1595.33 423.167 1592.67 439.167 1588 456.5C1583.67 473.833 1577.83 491.833 1570.5 510.5C1563.17 528.833 1554.67 547.333 1545 566C1535.67 584.333 1525.5 601.833 1514.5 618.5ZM1485 625C1486.33 618.667 1487.5 612.333 1488.5 606C1489.83 599.667 1491.33 593.167 1493 586.5C1492.33 586.833 1491.67 587.167 1491 587.5C1490.67 587.833 1490.17 588.167 1489.5 588.5C1485.83 590.167 1483.33 590.167 1482 588.5C1480.67 586.5 1480 583.5 1480 579.5C1480 577.5 1479.83 574 1479.5 569C1479.17 563.667 1478.17 558.333 1476.5 553C1475.17 547.333 1473 542.5 1470 538.5C1467 534.167 1462.83 532 1457.5 532C1449.83 532 1442 536 1434 544C1426 551.667 1418.5 561.167 1411.5 572.5C1404.5 583.5 1398.67 595.333 1394 608C1389.33 620.667 1386.67 632 1386 642C1385.33 658 1387.33 669.5 1392 676.5C1396.67 683.5 1403 687 1411 687C1417 687 1423.5 684.667 1430.5 680C1437.83 675.333 1444.83 669.667 1451.5 663C1458.5 656.333 1464.83 649.5 1470.5 642.5C1476.5 635.5 1481.33 629.667 1485 625ZM1713 419.5C1712 423.167 1710 426.833 1707 430.5C1704.33 433.833 1701.17 436.667 1697.5 439C1694.17 441 1690.67 442.333 1687 443C1683.33 443.667 1680.33 443 1678 441C1671 435.667 1667.33 430 1667 424C1666.67 417.667 1668.17 411.833 1671.5 406.5C1674.83 400.833 1679 396.167 1684 392.5C1689 388.5 1693.33 386.167 1697 385.5C1700.67 384.833 1703.67 385.667 1706 388C1708.67 390 1710.67 392.833 1712 396.5C1713.33 399.833 1714 403.667 1714 408C1714.33 412.333 1714 416.167 1713 419.5ZM1644 526C1645.67 524 1648.83 522.333 1653.5 521C1658.17 519.667 1663 518.667 1668 518C1673 517 1677.5 516.5 1681.5 516.5C1685.83 516.167 1688.33 516.167 1689 516.5C1689.33 516.833 1688.5 520.333 1686.5 527C1684.5 533.667 1682 541.5 1679 550.5C1676 559.5 1672.83 568.833 1669.5 578.5C1666.17 587.833 1663.67 595.5 1662 601.5C1660.33 607.5 1658.33 614.333 1656 622C1653.67 629.333 1651.5 636.667 1649.5 644C1647.83 651 1646.67 657.667 1646 664C1645.33 670.333 1645.83 675.167 1647.5 678.5C1649.17 682.5 1651 685.333 1653 687C1655 688.333 1657.17 689 1659.5 689C1666.17 689 1674.5 685.333 1684.5 678C1694.83 670.667 1705.17 662 1715.5 652C1726.17 641.667 1736 631.333 1745 621C1754 610.333 1760.67 601.833 1765 595.5C1767.67 592.167 1770.33 590 1773 589C1776 588 1778.33 588.167 1780 589.5C1782 590.833 1783 593 1783 596C1783.33 599 1782.33 602.5 1780 606.5C1774.67 615.833 1766.83 627 1756.5 640C1746.17 652.667 1735.17 665 1723.5 677C1711.83 688.667 1700.33 698.667 1689 707C1678 715.333 1669 719.667 1662 720C1656.33 720.333 1650.67 719.333 1645 717C1639.67 715 1634.67 712.167 1630 708.5C1625.67 704.5 1622 700 1619 695C1616 689.667 1614.33 684.167 1614 678.5C1613 670.167 1613 658.833 1614 644.5C1615 629.833 1616.83 615 1619.5 600C1622.17 584.667 1625.5 570.167 1629.5 556.5C1633.83 542.833 1638.67 532.667 1644 526ZM1891.5 634.5C1888.17 647.167 1883.67 659 1878 670C1872.33 681 1865.5 690.5 1857.5 698.5C1849.83 706.5 1841 712.667 1831 717C1821.33 721.667 1810.67 724 1799 724C1785.33 724 1774.5 721 1766.5 715C1758.83 709.333 1753 702.167 1749 693.5C1745.33 684.833 1743.17 675.333 1742.5 665C1741.5 654.667 1741 645 1741 636C1741 629.667 1741.83 622.667 1743.5 615C1744.83 607.333 1746.83 599.5 1749.5 591.5C1752.17 583.5 1755.5 575.5 1759.5 567.5C1763.83 559.5 1768.83 552.167 1774.5 545.5C1776.5 539.833 1779.5 534.833 1783.5 530.5C1787.83 526.167 1792.67 522.667 1798 520C1803.67 517 1809.67 514.833 1816 513.5C1822.33 511.833 1828.5 511 1834.5 511C1835.5 511 1836.33 511.167 1837 511.5C1838 511.833 1839 512.167 1840 512.5C1844.33 512.833 1849.67 514.5 1856 517.5C1862.67 520.5 1869 525 1875 531C1881.33 537 1886.67 544.667 1891 554C1895.33 563 1897.5 574 1897.5 587C1897.5 589.667 1897.33 593 1897 597C1896.67 600.667 1896.33 603.833 1896 606.5C1903.67 603.5 1911.67 599.833 1920 595.5C1928.33 591.167 1936.33 586.667 1944 582C1952 577 1959.33 572 1966 567C1972.67 562 1978 557.5 1982 553.5C1985.33 550.5 1988.17 548.833 1990.5 548.5C1992.83 548.167 1994.5 548.833 1995.5 550.5C1996.5 552.167 1996.67 554.5 1996 557.5C1995.33 560.5 1993.5 563.833 1990.5 567.5C1988.83 569.5 1984.5 573.5 1977.5 579.5C1970.83 585.5 1962.83 592 1953.5 599C1944.17 606 1934 612.833 1923 619.5C1912 626.167 1901.5 631.167 1891.5 634.5ZM1807 558.5C1806 561.5 1805.5 564.667 1805.5 568C1805.5 573.333 1805.83 579 1806.5 585C1807.17 590.667 1808.83 595.833 1811.5 600.5C1814.17 605.167 1818.33 609.167 1824 612.5C1830 615.5 1838.17 617 1848.5 617C1850.17 617 1851.83 617 1853.5 617C1855.17 616.667 1856.83 616.333 1858.5 616C1859.5 611.667 1860.33 607.833 1861 604.5C1862 600.833 1862.5 597.667 1862.5 595C1863.17 588.667 1863.17 582.167 1862.5 575.5C1861.83 568.833 1860.5 562.833 1858.5 557.5C1856.83 551.833 1854.5 547.333 1851.5 544C1848.83 540.333 1845.5 538.5 1841.5 538.5C1835.17 538.5 1829 540.333 1823 544C1817.33 547.333 1812 552.167 1807 558.5ZM1775 646.5C1775 652.5 1775.33 658.5 1776 664.5C1776.67 670.167 1778 675.333 1780 680C1782 684.333 1784.67 688 1788 691C1791.33 693.667 1795.67 695 1801 695C1807 695 1812.5 693.667 1817.5 691C1822.5 688 1827 684.333 1831 680C1835 675.333 1838.5 670.167 1841.5 664.5C1844.83 658.5 1847.67 652.333 1850 646C1847.67 646.333 1845.33 646.667 1843 647C1841 647 1838.67 647 1836 647C1823.33 647 1812.33 643.333 1803 636C1794 628.333 1787 618.667 1782 607C1780 614 1778.33 620.833 1777 627.5C1775.67 634.167 1775 640.5 1775 646.5Z" fill="#1D2424"/>
<rect x="66" y="166" width="2068" height="868" rx="434" stroke="#1D2424" stroke-width="32"/>
</svg>
