<?xml version="1.0" encoding="utf-8"?>
<svg width="512" height="612" viewBox="0 0 512 612" xmlns="http://www.w3.org/2000/svg">
<rect id="frame" x="0" y="0" width="512" height="612" fill="#f7f7f7" stroke="none" stroke-width="0"/>

<!-- Entity order -->
<g>
	<g>
		<rect x="45" y="43" width="88" height="25" fill="#c2a5cf" stroke="#c2a5cf" stroke-width="0" opacity="1"/>
		<rect x="45" y="68" width="88" height="111" fill="#e7d4e8" stroke="#e7d4e8" stroke-width="0" opacity="1"/>
		<rect x="45" y="43" width="88" height="136" fill="none" stroke="#9970ab" stroke-width="2" opacity="1"/>
		<line x1="45" y1="68" x2="133" y2="68" stroke="#9970ab" stroke-width="1"/>
	</g>
	<text x="73" y="60.75" fill="#000" font-family="Verdana" font-size="12">order</text>
	<text x="50" y="85.8" fill="#000" font-family="Verdana" font-size="12">codeOrder</text>
	<line x1="50" y1="88" x2="114" y2="88" stroke="#000" stroke-width="1"/>
	<text x="50" y="102.8" fill="#000" font-family="Verdana" font-size="12">number</text>
	<text x="50" y="119.8" fill="#000" font-family="Verdana" font-size="12">deliveryDate</text>
	<text x="50" y="136.8" fill="#000" font-family="Verdana" font-size="12">createdAt</text>
	<text x="50" y="153.8" fill="#000" font-family="Verdana" font-size="12">updatedAt</text>
	<text x="50" y="170.8" fill="#000" font-family="Verdana" font-size="12">#codeUser</text>
</g>

<!-- Entity user -->
<g>
	<g>
		<rect x="211" y="9" width="74" height="25" fill="#c2a5cf" stroke="#c2a5cf" stroke-width="0" opacity="1"/>
		<rect x="211" y="34" width="74" height="179" fill="#e7d4e8" stroke="#e7d4e8" stroke-width="0" opacity="1"/>
		<rect x="211" y="9" width="74" height="204" fill="none" stroke="#9970ab" stroke-width="2" opacity="1"/>
		<line x1="211" y1="34" x2="285" y2="34" stroke="#9970ab" stroke-width="1"/>
	</g>
	<text x="235" y="26.75" fill="#000" font-family="Verdana" font-size="12">user</text>
	<text x="216" y="51.8" fill="#000" font-family="Verdana" font-size="12">codeUser</text>
	<line x1="216" y1="54" x2="272" y2="54" stroke="#000" stroke-width="1"/>
	<text x="216" y="68.8" fill="#000" font-family="Verdana" font-size="12">name</text>
	<text x="216" y="85.8" fill="#000" font-family="Verdana" font-size="12">firstname</text>
	<text x="216" y="102.8" fill="#000" font-family="Verdana" font-size="12">password</text>
	<text x="216" y="119.8" fill="#000" font-family="Verdana" font-size="12">email</text>
	<text x="216" y="136.8" fill="#000" font-family="Verdana" font-size="12">phone</text>
	<text x="216" y="153.8" fill="#000" font-family="Verdana" font-size="12">address</text>
	<text x="216" y="170.8" fill="#000" font-family="Verdana" font-size="12">role</text>
	<text x="216" y="187.8" fill="#000" font-family="Verdana" font-size="12">createdAt</text>
	<text x="216" y="204.8" fill="#000" font-family="Verdana" font-size="12">updatedAt</text>
</g>

<!-- Entity productLike -->
<g>
	<g>
		<rect x="360" y="69" width="110" height="25" fill="#c2a5cf" stroke="#c2a5cf" stroke-width="0" opacity="1"/>
		<rect x="360" y="94" width="110" height="59" fill="#e7d4e8" stroke="#e7d4e8" stroke-width="0" opacity="1"/>
		<rect x="360" y="69" width="110" height="84" fill="none" stroke="#9970ab" stroke-width="2" opacity="1"/>
		<line x1="360" y1="94" x2="470" y2="94" stroke="#9970ab" stroke-width="1"/>
	</g>
	<text x="380" y="86.75" fill="#000" font-family="Verdana" font-size="12">productLike</text>
	<text x="365" y="111.8" fill="#000" font-family="Verdana" font-size="12">codeProductLike</text>
	<line x1="365" y1="114" x2="464" y2="114" stroke="#000" stroke-width="1"/>
	<text x="365" y="128.8" fill="#000" font-family="Verdana" font-size="12">#codeUser</text>
	<text x="365" y="145.8" fill="#000" font-family="Verdana" font-size="12">#codeProduct</text>
</g>

<!-- Entity productOrder -->
<g>
	<g>
		<rect x="41" y="323" width="96" height="25" fill="#c2a5cf" stroke="#c2a5cf" stroke-width="0" opacity="1"/>
		<rect x="41" y="348" width="96" height="43" fill="#e7d4e8" stroke="#e7d4e8" stroke-width="0" opacity="1"/>
		<rect x="41" y="323" width="96" height="68" fill="none" stroke="#9970ab" stroke-width="2" opacity="1"/>
		<line x1="41" y1="348" x2="137" y2="348" stroke="#9970ab" stroke-width="1"/>
	</g>
	<text x="49" y="340.75" fill="#000" font-family="Verdana" font-size="12">productOrder</text>
	<text x="46" y="365.8" fill="#000" font-family="Verdana" font-size="12">#codeProduct</text>
	<line x1="46" y1="368" x2="131" y2="368" stroke="#000" stroke-width="1"/>
	<text x="46" y="382.8" fill="#000" font-family="Verdana" font-size="12">#codeOrder</text>
</g>

<!-- Entity product -->
<g>
	<g>
		<rect x="205" y="238" width="86" height="25" fill="#c2a5cf" stroke="#c2a5cf" stroke-width="0" opacity="1"/>
		<rect x="205" y="263" width="86" height="213" fill="#e7d4e8" stroke="#e7d4e8" stroke-width="0" opacity="1"/>
		<rect x="205" y="238" width="86" height="238" fill="none" stroke="#9970ab" stroke-width="2" opacity="1"/>
		<line x1="205" y1="263" x2="291" y2="263" stroke="#9970ab" stroke-width="1"/>
	</g>
	<text x="225" y="255.75" fill="#000" font-family="Verdana" font-size="12">product</text>
	<text x="210" y="280.8" fill="#000" font-family="Verdana" font-size="12">codeProduct</text>
	<line x1="210" y1="283" x2="285" y2="283" stroke="#000" stroke-width="1"/>
	<text x="210" y="297.8" fill="#000" font-family="Verdana" font-size="12">title</text>
	<text x="210" y="314.8" fill="#000" font-family="Verdana" font-size="12">description</text>
	<text x="210" y="331.8" fill="#000" font-family="Verdana" font-size="12">dimensions</text>
	<text x="210" y="348.8" fill="#000" font-family="Verdana" font-size="12">price</text>
	<text x="210" y="365.8" fill="#000" font-family="Verdana" font-size="12">picture</text>
	<text x="210" y="382.8" fill="#000" font-family="Verdana" font-size="12">releaseDate</text>
	<text x="210" y="399.8" fill="#000" font-family="Verdana" font-size="12">artist</text>
	<text x="210" y="416.8" fill="#000" font-family="Verdana" font-size="12">stock</text>
	<text x="210" y="433.8" fill="#000" font-family="Verdana" font-size="12">createdAt</text>
	<text x="210" y="450.8" fill="#000" font-family="Verdana" font-size="12">updatedAt</text>
	<text x="210" y="467.8" fill="#000" font-family="Verdana" font-size="12">#codeType</text>
</g>

<!-- Entity type -->
<g>
	<g>
		<rect x="378" y="306" width="74" height="25" fill="#c2a5cf" stroke="#c2a5cf" stroke-width="0" opacity="1"/>
		<rect x="378" y="331" width="74" height="77" fill="#e7d4e8" stroke="#e7d4e8" stroke-width="0" opacity="1"/>
		<rect x="378" y="306" width="74" height="102" fill="none" stroke="#9970ab" stroke-width="2" opacity="1"/>
		<line x1="378" y1="331" x2="452" y2="331" stroke="#9970ab" stroke-width="1"/>
	</g>
	<text x="401" y="323.75" fill="#000" font-family="Verdana" font-size="12">type</text>
	<text x="383" y="348.8" fill="#000" font-family="Verdana" font-size="12">codeType</text>
	<line x1="383" y1="351" x2="441" y2="351" stroke="#000" stroke-width="1"/>
	<text x="383" y="365.8" fill="#000" font-family="Verdana" font-size="12">name</text>
	<text x="383" y="382.8" fill="#000" font-family="Verdana" font-size="12">createdAt</text>
	<text x="383" y="399.8" fill="#000" font-family="Verdana" font-size="12">updatedAt</text>
</g>

<!-- Entity category -->
<g>
	<g>
		<rect x="201" y="501" width="94" height="25" fill="#c2a5cf" stroke="#c2a5cf" stroke-width="0" opacity="1"/>
		<rect x="201" y="526" width="94" height="77" fill="#e7d4e8" stroke="#e7d4e8" stroke-width="0" opacity="1"/>
		<rect x="201" y="501" width="94" height="102" fill="none" stroke="#9970ab" stroke-width="2" opacity="1"/>
		<line x1="201" y1="526" x2="295" y2="526" stroke="#9970ab" stroke-width="1"/>
	</g>
	<text x="222" y="518.75" fill="#000" font-family="Verdana" font-size="12">category</text>
	<text x="206" y="543.8" fill="#000" font-family="Verdana" font-size="12">codeCategory</text>
	<line x1="206" y1="546" x2="290" y2="546" stroke="#000" stroke-width="1"/>
	<text x="206" y="560.8" fill="#000" font-family="Verdana" font-size="12">name</text>
	<text x="206" y="577.8" fill="#000" font-family="Verdana" font-size="12">createdAt</text>
	<text x="206" y="594.8" fill="#000" font-family="Verdana" font-size="12">updatedAt</text>
</g>

<!-- Entity productCategory -->
<g>
	<g>
		<rect x="359" y="518" width="112" height="25" fill="#c2a5cf" stroke="#c2a5cf" stroke-width="0" opacity="1"/>
		<rect x="359" y="543" width="112" height="43" fill="#e7d4e8" stroke="#e7d4e8" stroke-width="0" opacity="1"/>
		<rect x="359" y="518" width="112" height="68" fill="none" stroke="#9970ab" stroke-width="2" opacity="1"/>
		<line x1="359" y1="543" x2="471" y2="543" stroke="#9970ab" stroke-width="1"/>
	</g>
	<text x="365" y="535.75" fill="#000" font-family="Verdana" font-size="12">productCategory</text>
	<text x="364" y="560.8" fill="#000" font-family="Verdana" font-size="12">#codeCategory</text>
	<line x1="364" y1="563" x2="458" y2="563" stroke="#000" stroke-width="1"/>
	<text x="364" y="577.8" fill="#000" font-family="Verdana" font-size="12">#codeProduct</text>
</g>

<!-- Link from &quot;codeUser&quot; (order) to &quot;codeUser&quot; (user) -->
<path d="M133 166.5 C172 107 159 47.5 211 47.5" fill="none" stroke="#5aae61" stroke-width="2"/>
<polygon points="211 47.5 199 53.5 203 47.5 199 41.5" fill="#5aae61" stroke-width="0"/>
<circle cx="133" cy="166.5" r="2" stroke="#5aae61" stroke-width="2" fill="#5aae61"/>

<!-- Link from &quot;codeUser&quot; (productLike) to &quot;codeUser&quot; (user) -->
<path d="M360 124.5 C322.5 86 335 47.5 285 47.5" fill="none" stroke="#5aae61" stroke-width="2"/>
<polygon points="285 47.5 297 41.5 293 47.5 297 53.5" fill="#5aae61" stroke-width="0"/>
<circle cx="360" cy="124.5" r="2" stroke="#5aae61" stroke-width="2" fill="#5aae61"/>

<!-- Link from &quot;codeProduct&quot; (productLike) to &quot;codeProduct&quot; (product) -->
<path d="M360 141.5 C325.5 209 337 276.5 291 276.5" fill="none" stroke="#5aae61" stroke-width="2"/>
<polygon points="291 276.5 303 270.5 299 276.5 303 282.5" fill="#5aae61" stroke-width="0"/>
<circle cx="360" cy="141.5" r="2" stroke="#5aae61" stroke-width="2" fill="#5aae61"/>

<!-- Link from &quot;codeProduct&quot; (productOrder) to &quot;codeProduct&quot; (product) -->
<path d="M137 361.5 C171 319 159.67 276.5 205 276.5" fill="none" stroke="#5aae61" stroke-width="2"/>
<polygon points="205 276.5 193 282.5 197 276.5 193 270.5" fill="#5aae61" stroke-width="0"/>
<circle cx="137" cy="361.5" r="2" stroke="#5aae61" stroke-width="2" fill="#5aae61"/>

<!-- Link from &quot;codeOrder&quot; (productOrder) to &quot;codeOrder&quot; (order) -->
<path d="M41 378.5 C-13 230 -9 81.5 45 81.5" fill="none" stroke="#5aae61" stroke-width="2"/>
<polygon points="45 81.5 33 87.5 37 81.5 33 75.5" fill="#5aae61" stroke-width="0"/>
<circle cx="41" cy="378.5" r="2" stroke="#5aae61" stroke-width="2" fill="#5aae61"/>

<!-- Link from &quot;codeType&quot; (product) to &quot;codeType&quot; (type) -->
<path d="M291 463.5 C334.5 404 320 344.5 378 344.5" fill="none" stroke="#5aae61" stroke-width="2"/>
<polygon points="378 344.5 366 350.5 370 344.5 366 338.5" fill="#5aae61" stroke-width="0"/>
<circle cx="291" cy="463.5" r="2" stroke="#5aae61" stroke-width="2" fill="#5aae61"/>

<!-- Link from &quot;codeCategory&quot; (productCategory) to &quot;codeCategory&quot; (category) -->
<path d="M359 556.5 C327 548 337.67 539.5 295 539.5" fill="none" stroke="#5aae61" stroke-width="2"/>
<polygon points="295 539.5 307 533.5 303 539.5 307 545.5" fill="#5aae61" stroke-width="0"/>
<circle cx="359" cy="556.5" r="2" stroke="#5aae61" stroke-width="2" fill="#5aae61"/>

<!-- Link from &quot;codeProduct&quot; (productCategory) to &quot;codeProduct&quot; (product) -->
<path d="M359 573.5 C325 425 336.33 276.5 291 276.5" fill="none" stroke="#5aae61" stroke-width="2"/>
<polygon points="291 276.5 303 270.5 299 276.5 303 282.5" fill="#5aae61" stroke-width="0"/>
<circle cx="359" cy="573.5" r="2" stroke="#5aae61" stroke-width="2" fill="#5aae61"/>
</svg>